<?xml version="1.0" standalone="no"?>
<!DOCTYPE svg PUBLIC "-//W3C//DTD SVG 20010904//EN"
 "http://www.w3.org/TR/2001/REC-SVG-20010904/DTD/svg10.dtd">
<svg version="1.0" xmlns="http://www.w3.org/2000/svg"
 width="1080.000000pt" height="1080.000000pt" viewBox="0 0 1080.000000 1080.000000"
 preserveAspectRatio="xMidYMid meet">

<g transform="translate(0.000000,1080.000000) scale(0.100000,-0.100000)"
fill="#000000" stroke="none">
<path d="M6935 7215 c-22 -8 -41 -15 -41 -15 -1 0 -13 -34 -28 -75 -30 -85
-47 -119 -130 -257 -34 -57 -56 -104 -52 -113 17 -46 149 -44 252 5 67 32 159
101 204 153 74 85 92 180 45 235 -53 63 -174 96 -250 67z m214 -227 c-26 -52
-48 -78 -66 -78 -22 0 -15 25 17 61 16 19 37 51 47 71 16 34 18 35 21 13 2
-13 -7 -43 -19 -67z"/>
<path d="M6187 7094 c-32 -17 -59 -72 -136 -281 l-53 -141 -86 -8 c-48 -3
-130 -4 -183 0 -112 7 -129 3 -129 -31 0 -48 41 -96 115 -135 35 -18 50 -20
127 -14 49 3 88 3 88 -1 0 -3 -20 -70 -44 -147 -57 -181 -109 -361 -131 -456
-15 -64 -24 -81 -60 -116 -46 -45 -128 -104 -143 -104 -21 0 -122 292 -129
370 -10 128 35 181 192 226 104 29 125 47 125 108 0 55 -28 98 -92 140 -105
69 -212 72 -345 11 -108 -50 -193 -138 -257 -268 -46 -91 -49 -104 -54 -192
-3 -67 1 -122 13 -188 l17 -93 -71 -140 c-79 -155 -144 -248 -241 -345 -91
-90 -173 -126 -235 -103 -41 16 -60 107 -44 223 16 128 5 116 111 116 82 0 99
3 146 28 109 57 189 172 227 322 27 110 4 245 -53 309 -72 79 -229 81 -373 4
-166 -88 -287 -254 -374 -512 -79 -233 -244 -491 -364 -568 -57 -36 -71 -36
-71 1 0 58 88 368 135 476 7 17 26 67 40 112 23 68 27 94 22 145 -13 156 -129
277 -229 239 -24 -9 -78 -74 -78 -93 0 -4 -11 -31 -24 -60 -69 -154 -159 -441
-196 -623 -12 -60 -34 -96 -111 -180 -20 -22 -49 -54 -63 -72 -29 -35 -112
-93 -133 -93 -38 0 20 237 131 530 48 128 51 140 51 230 0 88 -2 99 -31 150
-53 94 -141 136 -208 101 -30 -16 -66 -90 -137 -278 -116 -308 -171 -540 -173
-723 -1 -110 2 -130 21 -170 28 -56 66 -80 127 -80 103 0 276 93 409 220 l82
78 7 -37 c27 -154 127 -194 291 -118 82 38 173 97 228 149 42 40 170 195 196
238 9 16 20 30 24 30 3 0 10 -23 13 -52 26 -191 160 -280 351 -233 136 34 301
131 401 237 61 64 161 212 215 321 22 42 41 77 43 77 6 0 98 -161 95 -164 -2
-2 -33 -18 -68 -36 -82 -41 -116 -65 -165 -115 -91 -93 -85 -174 16 -242 186
-125 464 -53 588 153 l35 58 0 134 0 135 54 34 54 35 -7 -39 c-54 -312 -46
-507 24 -577 24 -25 39 -30 89 -34 88 -6 185 41 285 140 94 93 206 246 271
371 22 42 35 47 35 14 0 -41 28 -118 51 -143 53 -57 152 -50 284 20 128 68
240 171 339 309 30 43 58 78 63 78 4 0 13 -28 20 -62 18 -90 52 -148 107 -186
58 -40 119 -50 205 -34 196 36 401 174 521 350 32 48 46 61 58 55 10 -3 26 -9
38 -11 12 -3 28 -20 37 -38 18 -37 82 -93 145 -124 73 -37 189 -62 320 -68
111 -5 122 -8 122 -25 0 -32 45 -68 85 -68 48 0 89 39 83 80 -4 28 -2 30 50
41 150 31 292 98 356 170 38 42 66 102 66 141 0 8 11 24 25 36 22 19 30 43 26
78 -1 7 8 14 19 17 24 6 26 31 5 71 -8 16 -15 54 -15 88 0 54 -3 63 -30 88
-16 15 -42 30 -58 33 -26 5 -30 12 -36 49 -4 24 -17 67 -31 96 -110 237 -341
375 -599 359 -258 -16 -468 -183 -547 -435 -19 -59 -29 -77 -52 -88 -15 -8
-35 -30 -44 -49 -15 -31 -15 -36 0 -58 15 -23 14 -26 -9 -46 -39 -34 -27 -61
27 -61 26 0 15 -21 -21 -42 -25 -14 -30 -23 -30 -56 0 -30 -11 -55 -50 -110
-106 -155 -225 -263 -306 -278 -47 -9 -89 11 -106 49 -31 75 -7 261 61 461 80
235 185 396 259 396 21 0 10 -125 -18 -204 -34 -101 -23 -166 28 -166 45 0 97
44 128 107 25 50 28 69 28 148 0 73 -4 100 -24 144 -71 161 -292 171 -494 22
-115 -85 -227 -260 -290 -453 -80 -244 -243 -496 -377 -585 -21 -14 -43 -22
-48 -18 -32 19 14 197 137 535 36 101 45 138 46 195 2 179 -122 316 -239 263
-42 -19 -118 -199 -229 -541 -22 -69 -103 -235 -251 -512 -116 -217 -206 -313
-251 -268 -23 24 -14 114 24 233 226 707 362 1113 376 1128 3 2 76 8 163 12
87 5 159 9 161 10 1 0 2 11 2 24 0 20 -8 27 -47 40 -76 24 -169 46 -196 46
-24 0 -25 1 -29 103 -3 83 -9 110 -27 142 -62 108 -141 149 -214 109z m173
-196 c0 -73 -17 -145 -36 -152 -25 -9 -28 23 -8 86 10 33 18 83 18 110 0 44 2
48 13 32 7 -10 13 -44 13 -76z m2512 -55 c164 -57 302 -192 357 -351 26 -77
27 -112 1 -145 -33 -41 -168 -116 -269 -147 -258 -81 -562 -57 -761 61 -59 35
-73 54 -76 102 -3 48 20 142 41 167 6 8 18 30 25 48 25 64 199 223 275 252 85
33 133 40 240 36 75 -2 128 -10 167 -23z m-1330 -257 c-22 -24 -50 -64 -63
-88 -47 -93 -79 -119 -79 -64 0 42 86 152 145 184 38 21 37 12 -3 -32z m-2200
-145 c-24 -15 -64 -54 -90 -87 -49 -60 -65 -68 -70 -35 -4 25 77 107 132 132
61 28 77 23 28 -10z m2619 -58 c-14 -51 -68 -123 -92 -123 -28 0 -24 11 21 61
21 24 47 61 57 83 20 46 29 34 14 -21z m1366 -35 c37 -13 46 -35 41 -89 l-3
-34 -108 3 c-118 3 -137 -3 -137 -46 0 -13 -9 -40 -21 -58 -25 -41 -58 -44
-121 -14 -68 33 -98 22 -98 -34 0 -63 -62 -125 -107 -109 -10 3 -47 27 -83 53
-36 26 -73 50 -83 53 -11 4 -38 -3 -67 -18 -87 -44 -151 -26 -188 54 -22 47
-48 50 -125 16 -47 -22 -66 -26 -86 -19 -35 13 -37 38 -6 75 14 18 24 37 22
43 -4 11 -50 30 -99 40 -21 5 -28 12 -28 29 0 46 44 64 54 23 10 -39 82 -90
189 -135 123 -51 189 -63 357 -63 113 -1 155 4 255 27 103 23 218 65 235 86 3
3 10 8 15 10 42 17 116 67 131 91 22 32 18 31 61 16z m-1220 -142 c-2 -6 -25
-12 -51 -14 -34 -2 -46 0 -41 8 16 27 101 32 92 6z m1282 -35 c7 -12 12 -23
10 -24 -2 -1 -61 -1 -130 1 l-126 4 5 24 5 25 110 -4 c100 -4 113 -7 126 -26z
m-4867 -41 c-23 -16 -58 -52 -79 -80 -36 -48 -73 -66 -73 -35 0 22 84 110 123
129 57 28 75 19 29 -14z m4836 -43 c5 -38 -22 -66 -71 -74 -47 -7 -73 -33 -82
-80 l-6 -36 -57 9 c-106 15 -132 11 -195 -29 -54 -35 -117 -50 -117 -27 0 5 7
27 15 48 15 37 17 38 93 52 42 7 100 20 127 27 28 8 74 21 104 29 71 19 118
49 137 86 19 37 48 34 52 -5z m-424 7 c13 -5 14 -9 5 -20 -16 -20 -29 -17 -29
6 0 22 1 23 24 14z m-4162 -69 c-7 -122 -71 -264 -144 -318 -30 -22 -128 -36
-128 -19 0 16 55 153 84 210 35 69 113 171 139 182 44 18 52 9 49 -55z m3293
28 c44 -83 93 -105 276 -125 65 -7 119 -16 119 -20 0 -7 -45 -12 -53 -5 -2 1
-18 -10 -36 -25 -18 -16 -36 -28 -41 -28 -9 0 -30 25 -45 54 -10 19 -18 21
-71 17 -168 -11 -166 -12 -149 52 6 23 2 32 -31 63 -32 29 -36 37 -24 44 25
16 35 11 55 -27z m1119 22 c-55 -24 -87 -30 -82 -14 5 14 44 26 88 27 24 0 23
0 -6 -13z m-502 -88 c35 -29 59 -41 93 -45 38 -4 45 -8 39 -21 -13 -33 -24
-87 -24 -128 0 -23 -4 -44 -9 -48 -5 -3 -22 11 -37 31 -25 32 -31 35 -58 29
-63 -14 -115 -10 -135 10 -28 29 -84 185 -66 185 8 0 35 11 61 25 53 28 60 26
136 -38z m-4992 1 c0 -6 -18 -40 -41 -74 -22 -35 -47 -85 -54 -111 l-13 -48
-1 47 c-2 75 55 198 90 198 10 0 19 -5 19 -12z m5610 -28 c0 -45 -105 -149
-185 -185 -97 -43 -149 -59 -264 -79 -62 -11 -78 -11 -100 0 -34 18 -41 18
-41 -2 0 -15 -15 -16 -137 -11 -220 8 -371 67 -421 163 -10 20 -8 22 26 27 20
3 45 8 55 12 10 4 17 3 17 -5 0 -7 9 -25 21 -41 16 -23 28 -29 59 -29 21 0 45
6 52 13 38 35 46 39 70 27 13 -7 40 -28 60 -48 31 -29 46 -36 91 -40 30 -2 63
1 75 7 18 10 24 8 39 -16 22 -36 33 -43 61 -43 27 0 50 20 44 38 -2 7 -1 23 2
37 4 18 11 22 27 18 21 -6 99 15 99 26 0 12 65 46 90 47 14 1 48 -2 76 -7 71
-13 100 0 124 56 14 32 25 45 40 45 11 0 20 -5 20 -10z m-6273 -67 c2 -5 -12
-32 -30 -59 -19 -27 -43 -74 -55 -104 l-21 -55 0 45 c-1 88 87 231 106 173z
m4233 -153 c0 -14 17 -58 37 -97 28 -54 34 -76 26 -84 -16 -16 -30 -4 -54 49
-23 50 -40 201 -20 172 6 -8 11 -26 11 -40z m1530 -91 c38 -8 50 -15 50 -29 0
-37 -60 -52 -92 -23 -16 14 -26 63 -13 63 2 0 27 -5 55 -11z m-2270 -160 c33
-65 38 -99 15 -99 -33 0 -83 153 -69 212 l8 33 7 -43 c5 -23 22 -70 39 -103z
m-1304 -172 c-9 -37 -46 -78 -83 -94 -64 -26 -100 9 -45 44 15 10 29 20 32 24
10 11 94 58 98 54 3 -2 2 -15 -2 -28z m266 -64 c-33 -62 -117 -131 -148 -119
-21 8 -7 26 55 67 25 17 59 47 75 66 36 43 44 37 18 -14z m270 -88 c9 -16 32
-46 52 -64 38 -37 45 -61 22 -80 -20 -17 -39 -6 -69 42 -36 54 -50 111 -41
156 l7 36 7 -30 c4 -16 14 -43 22 -60z m-1534 -59 c15 -7 54 -19 87 -26 87
-17 95 -20 95 -36 0 -35 -135 -2 -193 48 -35 30 -31 36 11 14z m-538 -140 c0
-3 -15 -16 -33 -30 -45 -34 -149 -61 -178 -46 -32 18 -11 30 70 41 39 6 86 16
104 24 37 16 37 16 37 11z"/>
<path d="M8277 6660 c-3 -12 0 -20 7 -20 6 0 12 9 12 20 0 11 -3 20 -7 20 -4
0 -9 -9 -12 -20z"/>
<path d="M8210 6578 c-12 -22 -12 -22 6 -6 10 10 15 20 12 24 -4 3 -12 -5 -18
-18z"/>
<path d="M8211 6534 c0 -11 3 -14 6 -6 3 7 2 16 -1 19 -3 4 -6 -2 -5 -13z"/>
<path d="M8168 6483 c7 -3 16 -2 19 1 4 3 -2 6 -13 5 -11 0 -14 -3 -6 -6z"/>
<path d="M8275 6420 c-8 -13 -1 -24 14 -19 6 3 7 10 2 18 -6 10 -10 10 -16 1z"/>
<path d="M8131 6364 c0 -11 3 -14 6 -6 3 7 2 16 -1 19 -3 4 -6 -2 -5 -13z"/>
<path d="M9055 6260 c3 -5 8 -10 11 -10 2 0 4 5 4 10 0 6 -5 10 -11 10 -5 0
-7 -4 -4 -10z"/>
<path d="M8568 6253 c7 -3 16 -2 19 1 4 3 -2 6 -13 5 -11 0 -14 -3 -6 -6z"/>
<path d="M8643 6243 c9 -2 23 -2 30 0 6 3 -1 5 -18 5 -16 0 -22 -2 -12 -5z"/>
<path d="M8328 6233 c7 -3 16 -2 19 1 4 3 -2 6 -13 5 -11 0 -14 -3 -6 -6z"/>
<path d="M8400 6236 c0 -2 9 -6 20 -9 11 -3 20 -1 20 4 0 5 -9 9 -20 9 -11 0
-20 -2 -20 -4z"/>
<path d="M8970 6230 c-18 -12 -2 -12 25 0 13 6 15 9 5 9 -8 0 -22 -4 -30 -9z"/>
<path d="M8903 6223 c9 -2 25 -2 35 0 9 3 1 5 -18 5 -19 0 -27 -2 -17 -5z"/>
<path d="M8813 6213 c9 -2 23 -2 30 0 6 3 -1 5 -18 5 -16 0 -22 -2 -12 -5z"/>
<path d="M8380 6206 c0 -2 7 -7 16 -10 8 -3 12 -2 9 4 -6 10 -25 14 -25 6z"/>
<path d="M8235 5840 c-4 -7 -18 -9 -32 -5 -27 6 -26 4 26 -40 l24 -20 -13 24
c-10 19 -10 25 1 32 7 4 11 11 7 14 -3 4 -9 1 -13 -5z"/>
<path d="M9145 5820 c-3 -5 -2 -10 4 -10 5 0 13 5 16 10 3 6 2 10 -4 10 -5 0
-13 -4 -16 -10z"/>
<path d="M8287 5788 c5 -10 42 -9 68 2 14 5 6 7 -27 6 -25 0 -44 -4 -41 -8z"/>
<path d="M9066 5785 c-11 -8 -15 -15 -10 -15 6 0 19 7 30 15 10 8 15 14 9 14
-5 0 -19 -6 -29 -14z"/>
<path d="M8394 5772 c4 -7 1 -12 -6 -12 -9 0 -9 -3 2 -10 12 -8 10 -10 -10
-10 -23 -1 -23 -2 -6 -11 12 -8 20 -8 25 -1 3 5 17 12 31 15 24 4 24 4 -3 6
-16 0 -26 5 -22 10 3 5 0 13 -6 17 -8 4 -9 3 -5 -4z"/>
<path d="M9018 5763 c7 -3 16 -2 19 1 4 3 -2 6 -13 5 -11 0 -14 -3 -6 -6z"/>
<path d="M8970 5750 c-8 -5 -10 -10 -5 -10 6 0 17 5 25 10 8 5 11 10 5 10 -5
0 -17 -5 -25 -10z"/>
<path d="M8908 5743 c7 -3 16 -2 19 1 4 3 -2 6 -13 5 -11 0 -14 -3 -6 -6z"/>
<path d="M8878 5728 c5 -5 16 -8 23 -6 8 3 3 7 -10 11 -17 4 -21 3 -13 -5z"/>
<path d="M8505 5720 c-7 -12 12 -12 40 0 18 8 17 9 -7 9 -15 1 -30 -3 -33 -9z"/>
<path d="M8458 5713 c7 -3 16 -2 19 1 4 3 -2 6 -13 5 -11 0 -14 -3 -6 -6z"/>
<path d="M1954 6886 c-7 -19 -1 -232 7 -240 2 -3 42 5 87 16 67 18 82 26 82
41 0 21 -7 21 -97 1 l-32 -6 -3 98 c-3 85 -5 99 -21 102 -9 2 -20 -4 -23 -12z"/>
<path d="M1755 6849 c-44 -17 -84 -34 -88 -38 -7 -7 29 -240 38 -249 2 -2 11
1 22 7 10 6 47 22 83 35 49 18 66 29 68 45 4 27 -1 26 -76 -3 l-62 -25 -6 25
c-9 36 0 49 43 62 55 16 81 37 66 53 -9 9 -21 8 -55 -6 -24 -9 -48 -19 -54
-22 -15 -6 -24 44 -10 56 6 5 35 17 64 27 42 15 52 23 52 41 0 13 -1 23 -2 22
-2 0 -39 -14 -83 -30z"/>
<path d="M2187 6519 c-180 -26 -451 -116 -607 -201 -287 -157 -425 -375 -309
-490 42 -43 60 -34 76 36 19 86 69 147 203 250 217 167 601 286 792 246 146
-31 204 -171 147 -356 -79 -257 -311 -546 -582 -725 -66 -43 -124 -79 -128
-79 -15 0 -10 35 31 215 69 296 139 469 250 615 50 68 50 97 0 122 -40 20
-157 24 -227 8 -107 -25 -228 -112 -285 -205 -87 -141 -142 -388 -150 -663 -2
-68 -6 -126 -10 -128 -11 -7 -71 23 -96 46 -25 24 -26 24 -46 4 -25 -25 -20
-78 11 -116 43 -52 75 -78 119 -98 37 -16 41 -22 53 -76 37 -166 114 -325 179
-369 45 -31 97 -33 112 -6 6 12 10 95 10 200 0 193 7 231 41 231 32 0 194 58
294 105 176 84 360 223 491 372 38 43 72 80 75 83 10 9 89 119 89 124 0 3 13
26 30 53 71 116 116 294 108 432 -12 195 -113 308 -323 361 -86 21 -237 25
-348 9z m518 -220 c24 -22 40 -48 51 -86 14 -50 14 -56 -1 -79 -27 -41 -50
-27 -51 31 -1 28 -2 59 -3 71 -1 12 -12 38 -26 58 -30 44 -18 46 30 5z"/>
<path d="M9040 5343 c-140 -17 -253 -38 -256 -47 -5 -14 -33 -540 -29 -544 2
-2 33 -1 69 3 l66 7 0 43 c0 23 3 63 6 88 6 40 10 46 35 49 35 5 33 7 99 -75
l54 -68 55 7 c112 14 110 11 55 79 -27 33 -55 68 -62 77 -12 15 -7 23 41 70
45 45 56 63 66 107 12 58 8 91 -20 137 -27 44 -111 76 -179 67z m50 -139 c22
-26 16 -73 -13 -102 -20 -19 -44 -29 -94 -37 -37 -7 -70 -11 -73 -9 -3 1 -3
35 0 75 5 68 7 74 30 80 49 14 137 10 150 -7z"/>
<path d="M8417 5246 c-133 -22 -191 -35 -197 -46 -9 -18 -34 -529 -26 -538 3
-3 57 2 119 12 61 10 155 24 207 32 52 8 101 16 108 19 14 5 17 115 3 115 -5
0 -62 -9 -126 -20 -64 -11 -130 -20 -147 -20 -29 0 -29 0 -26 53 l3 52 68 13
c37 6 97 18 135 25 l67 12 3 53 c2 38 -1 52 -10 52 -7 0 -60 -9 -118 -20 -146
-28 -140 -29 -140 29 l0 49 63 11 c34 6 100 16 147 22 47 7 90 17 96 25 5 7
11 33 13 58 2 56 17 55 -242 12z"/>
<path d="M7780 5151 c-54 -17 -117 -56 -156 -97 -109 -115 -113 -322 -7 -416
53 -48 167 -67 251 -42 65 18 157 68 175 95 9 12 14 57 16 125 l2 107 -52 -7
c-29 -4 -56 -9 -61 -12 -4 -3 -8 -34 -8 -70 0 -36 -4 -74 -10 -84 -21 -40
-138 -54 -191 -23 -59 35 -77 139 -38 220 40 84 152 119 228 72 l34 -21 46 47
46 46 -29 23 c-15 13 -45 29 -66 35 -42 12 -142 13 -180 2z"/>
<path d="M7095 5036 c-66 -11 -121 -20 -123 -22 -3 -1 -31 -483 -32 -538 0
-17 6 -18 61 -12 33 3 65 8 70 12 5 3 9 33 9 67 0 93 6 107 45 107 28 0 40 -9
91 -71 l58 -71 50 7 c66 8 96 16 96 24 0 3 -25 37 -55 75 -30 38 -55 74 -55
80 0 6 13 18 29 28 52 29 85 92 89 168 4 63 2 69 -27 103 -55 62 -127 72 -306
43z m150 -106 c41 0 62 -82 28 -112 -43 -37 -165 -70 -178 -48 -3 5 -2 40 1
79 l7 70 51 9 c28 5 57 8 64 6 8 -2 20 -4 27 -4z"/>
<path d="M6748 4981 c-26 -4 -49 -9 -52 -12 -3 -2 -10 -86 -17 -184 -7 -117
-16 -190 -26 -208 -21 -41 -70 -67 -125 -67 -39 0 -50 5 -68 27 -23 29 -22 15
-4 307 l6 88 -44 -7 c-24 -3 -55 -8 -69 -11 l-27 -5 -7 -194 c-7 -192 -7 -195
16 -242 32 -63 65 -85 135 -91 152 -13 288 71 328 201 15 49 39 382 29 400 -5
8 -5 8 -75 -2z"/>
<path d="M5969 4856 c-2 -2 -56 -11 -119 -21 -63 -9 -120 -22 -126 -28 -11
-11 -42 -542 -33 -552 3 -2 24 0 49 5 25 5 90 16 146 24 151 24 198 41 248 89
74 71 76 173 4 212 -21 11 -38 23 -38 26 0 3 11 12 25 19 13 7 33 31 44 52 34
69 7 142 -62 167 -27 10 -129 15 -138 7z m66 -161 c0 -33 -5 -42 -25 -52 -37
-17 -153 -34 -163 -24 -5 5 -6 30 -3 55 7 43 9 45 49 55 23 5 65 9 92 8 l50
-2 0 -40z m9 -181 c9 -8 16 -20 16 -25 0 -21 -22 -49 -49 -63 -28 -15 -160
-37 -173 -29 -9 5 -10 59 -2 89 5 17 17 23 67 31 93 15 124 15 141 -3z"/>
<path d="M3620 2105 l0 -85 48 0 c72 0 84 13 76 83 -8 72 -23 87 -80 87 l-44
0 0 -85z m79 46 c18 -11 5 -31 -20 -31 -12 0 -19 7 -19 20 0 21 16 26 39 11z
m9 -84 c3 -12 -3 -17 -22 -17 -25 0 -35 18 -19 34 12 12 38 2 41 -17z"/>
<path d="M3790 2127 c0 -50 4 -68 20 -85 24 -26 57 -28 88 -6 19 13 22 24 22
85 0 55 -3 69 -15 69 -11 0 -15 -13 -15 -52 0 -61 -10 -81 -36 -76 -16 3 -20
14 -22 66 -3 54 -6 62 -22 62 -18 0 -20 -7 -20 -63z"/>
<path d="M3970 2105 l0 -85 51 0 c56 0 65 21 13 30 -16 3 -28 9 -26 13 1 4 2
12 2 17 0 6 11 10 25 10 16 0 25 6 25 15 0 9 -9 15 -25 15 -18 0 -25 5 -25 20
0 16 7 20 30 20 20 0 30 5 30 15 0 11 -12 15 -50 15 l-50 0 0 -85z"/>
<path d="M4117 2184 c-4 -4 -7 -43 -7 -86 0 -71 2 -78 20 -78 15 0 20 7 20 28
0 52 13 55 55 12 22 -22 43 -40 47 -40 5 0 8 37 6 82 -3 70 -6 83 -20 86 -15
3 -18 -4 -18 -37 0 -23 -3 -41 -7 -41 -4 0 -26 18 -48 40 -23 22 -44 37 -48
34z"/>
<path d="M4333 2180 c-48 -19 -58 -95 -18 -135 30 -31 73 -32 108 -5 33 26 41
63 22 100 -24 46 -62 60 -112 40z m75 -42 c16 -16 15 -53 -2 -67 -8 -7 -27
-11 -43 -9 -24 3 -28 8 -31 37 -2 20 2 37 10 42 19 13 52 11 66 -3z"/>
<path d="M4515 2174 c-24 -24 -15 -66 18 -82 38 -19 37 -46 -3 -37 -31 7 -39
-2 -18 -23 20 -20 56 -14 74 13 15 23 15 27 0 50 -9 14 -25 25 -36 25 -11 0
-20 6 -20 14 0 19 17 29 25 16 9 -15 35 -12 35 5 0 14 -29 35 -49 35 -5 0 -17
-7 -26 -16z"/>
<path d="M4782 2108 c-30 -64 -35 -84 -24 -86 8 -2 19 1 25 7 15 15 73 14 97
-1 10 -7 22 -10 25 -7 6 7 -63 156 -76 165 -5 3 -26 -32 -47 -78z m58 -18 c0
-11 -7 -20 -15 -20 -8 0 -15 9 -15 20 0 11 7 20 15 20 8 0 15 -9 15 -20z"/>
<path d="M4950 2106 c0 -80 1 -86 20 -86 20 0 21 5 18 82 -3 70 -6 83 -20 86
-16 3 -18 -6 -18 -82z"/>
<path d="M5030 2106 c0 -78 2 -86 19 -86 12 0 21 8 23 22 4 31 24 33 49 4 13
-14 29 -26 36 -26 16 0 16 2 1 35 -9 20 -8 31 2 50 12 22 11 29 -7 53 -17 22
-29 28 -72 30 l-51 3 0 -85z m95 40 c27 -19 13 -46 -25 -46 -25 0 -30 4 -30
23 0 39 21 48 55 23z"/>
<path d="M5220 2106 l0 -86 51 0 c56 0 65 21 13 30 -37 7 -39 34 -1 38 15 2
27 9 27 17 0 8 -12 15 -27 17 -41 4 -36 32 5 36 49 5 34 26 -21 30 l-47 3 0
-85z"/>
<path d="M5375 2170 c-25 -28 -13 -68 26 -82 39 -14 32 -34 -12 -30 l-34 3 22
-22 c28 -28 70 -20 79 16 7 29 -9 53 -44 66 -29 11 -18 33 13 25 33 -8 40 9
13 28 -29 21 -41 20 -63 -4z"/>
<path d="M5711 2125 c-42 -91 -45 -105 -27 -105 8 0 18 5 21 10 9 14 71 13 95
-2 10 -7 22 -10 25 -7 7 7 -67 169 -77 169 -4 0 -21 -29 -37 -65z m49 -35 c0
-11 -7 -20 -15 -20 -15 0 -21 21 -8 33 12 13 23 7 23 -13z"/>
<path d="M5877 2183 c-4 -3 -7 -42 -7 -85 0 -71 2 -78 20 -78 13 0 20 7 20 19
0 33 22 36 46 8 13 -15 30 -27 39 -27 19 0 19 10 0 36 -12 19 -12 24 0 40 20
27 18 42 -10 69 -17 18 -35 25 -63 25 -21 0 -42 -3 -45 -7z m92 -37 c18 -22 2
-46 -30 -46 -26 0 -29 4 -29 30 0 25 4 30 24 30 13 0 29 -6 35 -14z"/>
<path d="M6100 2183 c-79 -31 -56 -163 28 -163 36 0 82 34 82 61 0 15 -7 19
-35 19 -19 0 -35 -4 -35 -10 0 -5 5 -10 10 -10 6 0 10 -4 10 -10 0 -5 -14 -10
-30 -10 -24 0 -33 6 -41 26 -13 36 12 64 58 64 21 0 33 5 33 14 0 23 -43 33
-80 19z"/>
<path d="M6250 2105 l0 -85 50 0 c38 0 50 4 50 15 0 10 -10 15 -30 15 -23 0
-30 4 -30 20 0 15 7 20 25 20 16 0 25 6 25 15 0 9 -9 15 -25 15 -18 0 -25 5
-25 20 0 16 7 20 30 20 20 0 30 5 30 15 0 11 -12 15 -50 15 l-50 0 0 -85z"/>
<path d="M6400 2107 c0 -71 3 -87 15 -87 10 0 15 10 15 34 0 19 4 37 8 40 5 3
26 -13 47 -34 22 -22 43 -40 47 -40 4 0 8 39 8 86 0 76 -2 85 -17 82 -13 -2
-19 -14 -21 -41 -2 -20 -6 -37 -10 -37 -3 0 -26 19 -49 42 l-43 42 0 -87z"/>
<path d="M6587 2183 c-16 -15 -6 -33 18 -33 24 0 25 -2 25 -66 0 -57 2 -65 18
-62 14 3 17 14 17 63 0 58 1 60 28 63 19 2 27 9 27 23 0 17 -7 19 -63 19 -35
0 -67 -3 -70 -7z"/>
<path d="M6754 2177 c-3 -8 -4 -45 -2 -83 2 -56 6 -69 21 -72 15 -3 17 6 17
82 0 71 -3 86 -15 86 -9 0 -18 -6 -21 -13z"/>
<path d="M6947 2183 c-4 -3 -7 -21 -7 -40 0 -18 -3 -33 -6 -33 -4 0 -21 16
-40 35 -18 19 -37 35 -43 35 -7 0 -11 -30 -11 -80 0 -73 2 -80 20 -80 17 0 20
7 20 42 l0 42 43 -42 c23 -23 46 -42 50 -42 4 0 7 38 7 85 0 64 -3 85 -13 85
-8 0 -17 -3 -20 -7z"/>
<path d="M7057 2103 c-32 -70 -34 -104 -4 -74 14 14 94 14 99 0 2 -6 11 -10
20 -8 13 3 9 17 -20 82 -20 42 -41 77 -48 77 -6 0 -27 -35 -47 -77z m63 -13
c0 -11 -7 -20 -15 -20 -8 0 -15 9 -15 20 0 11 7 20 15 20 8 0 15 -9 15 -20z"/>
<path d="M5500 2031 c0 -6 5 -13 10 -16 6 -3 10 1 10 9 0 9 -4 16 -10 16 -5 0
-10 -4 -10 -9z"/>
</g>
</svg>
